<?xml version="1.0" encoding="UTF-8" standalone="no"?>
<svg
   xmlns:dc="http://purl.org/dc/elements/1.1/"
   xmlns:cc="http://creativecommons.org/ns#"
   xmlns:rdf="http://www.w3.org/1999/02/22-rdf-syntax-ns#"
   xmlns:svg="http://www.w3.org/2000/svg"
   xmlns="http://www.w3.org/2000/svg"
   viewBox="0 0 979.33331 243.65334"
   height="243.65334"
   width="979.33331"
   xml:space="preserve"
   id="svg2"
   version="1.1"><metadata
     id="metadata8"><rdf:RDF><cc:Work
         rdf:about=""><dc:format>image/svg+xml</dc:format><dc:type
           rdf:resource="http://purl.org/dc/dcmitype/StillImage" /></cc:Work></rdf:RDF></metadata><defs
     id="defs6" /><g
     transform="matrix(1.3333333,0,0,-1.3333333,0,243.65333)"
     id="g10"><g
       transform="scale(0.1)"
       id="g12"><path
         id="path14"
         style="fill:#2350a9;fill-opacity:1;fill-rule:nonzero;stroke:none"
         d="m 697.398,642.922 c 52.973,0 114.86,0 156.805,47.43 38.164,43.476 41.867,125.527 41.867,174.808 0,56.383 -5.484,132.778 -45.504,174.73 -41.945,41.86 -109.312,43.71 -149.39,43.71 H 313.324 c -16.386,0 -38.258,1.72 -56.488,-16.45 -16.363,-16.22 -16.363,-38.08 -16.363,-59.95 V 642.922 H 697.398 Z M 0,0 v 1083.6 c 0,47.28 0,98.41 43.7109,142.06 41.9493,41.95 100.1991,49.07 143.9101,49.07 h 606.484 c 67.282,0 174.813,0 253.145,-76.56 87.51,-83.5 96.48,-227.647 96.48,-335.029 0,-103.809 -10.82,-267.43 -111.08,-349.469 C 985.367,475.43 912.457,451.48 837.816,451.48 H 240.473 L 240.473,0 H 0 v 0" /><path
         id="path16"
         style="fill:#2350a9;fill-opacity:1;fill-rule:nonzero;stroke:none"
         d="m 1564.33,282.238 c 74.69,-96.398 194.83,-105.289 327.77,-105.289 131.17,0 253.15,8.891 329.61,105.289 41.95,52.782 78.27,149.481 78.27,355.051 0,220.457 -38.17,307.965 -78.27,357.18 -74.55,92.761 -200.23,103.581 -329.61,103.581 -132.94,0 -253.08,-10.82 -327.77,-103.581 -49.2,-62.114 -78.25,-162.227 -78.25,-357.18 0,-207.508 36.32,-302.269 78.25,-355.051 z M 2402,1171.71 C 2534.8,1044.11 2547.78,822.102 2547.78,654.551 2547.78,486.93 2533.1,264.738 2402,137.461 2263.66,2.42188 2041.42,2.42188 1893.87,2.42188 c -151.1,0 -367.83,0 -508.2,135.03912 -147.39,141.519 -147.39,373.098 -147.39,517.09 0,172.879 9.2,385.929 147.39,517.159 142.13,134.66 353.41,134.66 508.2,134.66 151.26,0 367.94,0 508.13,-134.66 v 0" /><path
         id="path18"
         style="fill:#2350a9;fill-opacity:1;fill-rule:nonzero;stroke:none"
         d="m 2783.2,0 c -58.32,0 -174.73,5.39063 -174.73,131.211 0,78.277 41.87,132.949 78.33,171.211 l 695.61,719.228 c 10.96,10.96 21.87,25.5 21.87,38.32 0,7.18 -5.49,23.63 -34.62,23.63 H 2657.6 v 191.13 h 916.22 c 70.7,0 143.61,-27.28 143.61,-131.03 0,-81.95 -36.46,-118.48 -72.91,-156.641 L 2939.79,243.922 c -9.11,-8.961 -18.16,-17.934 -18.16,-32.543 0,-16.5 10.9,-20.207 21.86,-20.207 H 3697.2 V 0 h -914 v 0" /><path
         id="path20"
         style="fill:#2350a9;fill-opacity:1;fill-rule:nonzero;stroke:none"
         d="m 3846.01,817.641 c 0,29.285 1.7,72.855 30.82,103.902 40.31,45.434 105.74,43.734 147.69,43.734 h 340.35 c 100.28,0 193.34,-9.054 269.69,-78.273 50.98,-45.563 94.77,-118.344 94.77,-251.504 V 0 h -212.89 v 571.852 c 0,63.648 -5.73,125.597 -40.4,171.027 -30.68,40.23 -74.47,58.461 -152.89,58.461 H 4106.2 c -12.38,0 -25.27,0 -36.38,-11.11 -10.83,-12.519 -10.83,-26.968 -10.83,-39.929 V 0 h -212.98 v 817.641 0" /><path
         id="path22"
         style="fill:#2350a9;fill-opacity:1;fill-rule:nonzero;stroke:none"
         d="m 5192.02,437.129 c -14.65,0 -54.61,-2 -78.24,-32.84 -7.56,-9.269 -23.77,-34.449 -23.77,-103.801 0,-28.968 3.61,-80.277 29.02,-107.308 14.83,-14.61 42.09,-29.2 69.36,-29.2 h 296.95 c 12.68,0 32.68,0 47.42,11.04 14.46,12.832 14.46,25.191 14.46,40 v 222.109 h -355.2 z m 296.88,528.148 c 82.09,0 156.44,-29.199 200.23,-74.781 40.23,-41.867 70.98,-120.117 70.98,-227.644 V 162.129 c 0,-34.77 -3.69,-88.9298 -38.38,-123.7696 C 5687.49,3.53125 5634.66,0 5589.01,0 H 5128.1 c -52.64,0 -120.22,0 -174.83,47.3398 -78.18,67.4222 -83.67,191.1912 -83.67,262.4612 0,85.219 9.12,171.211 81.97,234.711 60.1,53.058 125.61,56.539 176.53,56.539 h 419.12 v 67.347 c 0,29.051 -3.69,61.883 -27.27,90.934 -29.34,36.316 -71.15,42.008 -104.2,42.008 h -475.08 v 163.937 h 548.23 v 0" /><path
         id="path24"
         style="fill:#2350a9;fill-opacity:1;fill-rule:nonzero;stroke:none"
         d="m 5931.3,817.641 c 0,29.285 1.72,72.855 30.92,103.902 40.02,45.434 105.58,43.734 147.6,43.734 h 340.58 c 100.12,0 193.03,-9.054 269.38,-78.273 51.21,-45.563 94.76,-118.344 94.76,-251.504 V 0 H 6601.2 v 571.852 c 0,63.648 -5.25,125.597 -39.71,171.027 -31.28,40.23 -74.7,58.461 -152.96,58.461 h -216.82 c -12.91,0 -25.33,0 -36.1,-11.11 -11.11,-12.519 -11.11,-26.968 -11.11,-39.929 V 0 h -213.2 v 817.641 0" /><path
         id="path26"
         style="fill:#00adef;fill-opacity:1;fill-rule:nonzero;stroke:none"
         d="m 7061.69,1379.51 276.85,161.1 -74.31,126.28 -271.04,-159.48 v 319.99 h -146.72 v -322.13 l -277.65,162.88 -74.1,-126.29 278.98,-163.55 -510.94,-300.55 h 281.02 l 302.69,176.37 V 970.906 h 146.72 v 278.914 l 277.62,-162.88 74.18,126.43 -283.3,166.14 v 0" /></g></g></svg>